<?xml version="1.0" standalone="no"?>
<!DOCTYPE svg PUBLIC "-//W3C//DTD SVG 20010904//EN"
 "http://www.w3.org/TR/2001/REC-SVG-20010904/DTD/svg10.dtd">
<svg version="1.0" xmlns="http://www.w3.org/2000/svg"
 width="64pt" height="64pt" viewBox="0 0 500.000000 500.000000"
 preserveAspectRatio="xMidYMid meet">

<g transform="translate(0.000000,500.000000) scale(0.100000,-0.100000)"
fill="#000000" stroke="none">
<path d="M588 4804 c-189 -45 -348 -206 -393 -396 -22 -92 -22 -3707 -1 -3809
41 -194 203 -358 398 -404 95 -22 3721 -22 3816 0 195 46 357 210 398 404 21
99 21 3703 0 3802 -41 194 -203 358 -398 404 -91 21 -3732 21 -3820 -1z m3804
-25 c137 -29 284 -140 341 -259 60 -126 57 -3 57 -2017 0 -1306 -3 -1857 -11
-1895 -39 -187 -200 -348 -387 -387 -75 -16 -3709 -16 -3784 0 -187 39 -348
200 -387 387 -16 75 -16 3709 0 3784 38 182 191 340 372 384 71 17 3718 20
3799 3z"/>
<path d="M2444 4406 c-28 -13 -64 -40 -80 -59 -29 -36 -31 -36 -69 -26 -52 15
-129 5 -213 -27 -37 -14 -96 -35 -132 -46 -121 -38 -174 -74 -205 -141 -8 -18
-24 -44 -37 -60 -12 -15 -24 -47 -28 -74 -3 -26 -11 -49 -20 -53 -8 -4 -51
-23 -95 -41 -97 -40 -196 -100 -229 -140 -35 -41 -44 -81 -56 -248 -6 -79 -15
-162 -20 -185 -24 -111 -40 -175 -55 -215 -39 -110 -45 -168 -45 -415 0 -268
4 -294 67 -421 19 -38 66 -111 104 -162 39 -50 77 -106 86 -123 22 -45 40
-129 53 -250 17 -160 69 -293 143 -373 52 -55 113 -90 287 -166 234 -102 315
-163 375 -286 28 -57 35 -148 25 -325 -4 -72 -2 -85 11 -88 9 -2 58 25 109 59
70 47 148 117 309 279 206 206 328 312 471 409 123 84 260 193 303 241 51 57
86 124 96 187 4 28 39 109 82 193 107 207 143 297 179 450 108 461 119 771 31
914 -20 31 -22 45 -16 98 7 73 -18 186 -61 274 -56 114 -191 275 -250 296 -36
13 -43 27 -58 120 -7 37 -23 56 -88 105 -20 16 -53 41 -72 57 -26 20 -49 29
-82 31 -37 2 -53 10 -83 38 -20 19 -46 40 -59 47 -33 17 -117 37 -187 45 -53
7 -173 43 -290 89 -60 23 -141 20 -201 -8z m-114 -177 c0 -85 27 -134 136
-247 107 -111 143 -169 150 -244 4 -44 3 -49 -6 -28 -52 119 -91 180 -170 271
-49 56 -98 121 -109 144 -33 70 -41 188 -11 170 5 -3 10 -33 10 -66z m-420
-73 c17 -53 85 -122 163 -167 165 -95 219 -133 291 -207 141 -144 186 -222
216 -384 11 -56 21 -105 21 -108 1 -3 7 51 14 120 7 69 18 161 25 205 15 102
8 175 -23 228 -14 23 -64 84 -111 135 -47 52 -86 100 -86 107 0 7 18 29 40 49
56 50 102 49 207 -2 43 -22 92 -44 109 -51 66 -26 71 -119 10 -206 -38 -54
-81 -129 -106 -185 -23 -51 -25 -65 -23 -193 1 -76 6 -143 9 -149 11 -17 22
19 23 67 1 51 50 205 92 287 38 75 125 209 174 266 52 60 185 157 250 181 72
27 96 21 169 -46 l57 -52 -48 -24 c-277 -135 -618 -461 -659 -629 -3 -16 -4
-28 -1 -28 2 0 31 16 63 35 59 36 176 94 269 134 86 37 196 62 306 68 213 12
339 -50 418 -204 21 -42 28 -84 14 -82 -5 0 -27 13 -51 27 -219 138 -331 192
-398 192 -60 0 -349 -118 -370 -151 -9 -15 36 -10 136 16 52 14 112 25 132 25
35 0 39 -3 78 -69 56 -97 81 -115 148 -107 l52 6 0 -38 c0 -52 -18 -144 -42
-221 -25 -78 -21 -118 27 -231 91 -216 128 -341 146 -500 19 -173 -3 -423 -41
-464 -4 -4 -13 18 -19 50 -20 108 -36 165 -46 165 -5 0 -19 -37 -31 -83 -29
-119 -87 -267 -151 -385 -57 -109 -83 -143 -34 -45 16 31 50 108 75 169 115
280 143 445 116 688 -16 145 -78 329 -108 323 -24 -5 -127 -219 -152 -316 -25
-93 -24 -171 4 -302 29 -138 16 -398 -29 -570 -21 -82 -94 -233 -136 -283 -17
-21 -33 -36 -36 -34 -2 3 7 32 21 65 35 82 82 251 95 339 16 103 13 317 -4
435 -15 96 -20 117 -28 107 -2 -2 -25 -46 -50 -97 -53 -105 -108 -184 -178
-257 -65 -67 -76 -84 -104 -162 -28 -76 -71 -127 -131 -154 -23 -10 -48 -26
-55 -36 -13 -15 -12 -16 6 -8 11 5 48 11 82 13 l62 4 7 -49 c9 -60 -11 -287
-32 -373 -23 -88 -56 -152 -125 -235 -74 -90 -177 -191 -185 -182 -4 4 20 35
52 69 77 80 138 163 153 208 7 19 15 80 18 135 8 164 -27 277 -115 368 -33 33
-61 52 -96 62 -107 32 -148 70 -214 202 -32 63 -81 128 -90 119 -3 -3 0 -11 6
-18 5 -7 28 -54 49 -104 50 -115 98 -174 183 -224 114 -66 172 -155 192 -291
11 -70 -4 -189 -23 -189 -4 0 -13 26 -19 57 -31 158 -76 248 -210 417 -8 11
-31 38 -50 60 -156 180 -238 324 -315 551 -26 77 -59 166 -73 198 -26 59 -49
77 -38 30 21 -88 18 -170 -13 -334 -41 -220 -44 -397 -7 -510 13 -41 22 -76
19 -79 -10 -10 -73 77 -118 162 -62 118 -95 261 -95 416 0 98 5 132 36 250 30
116 36 153 35 243 0 59 -3 124 -6 145 l-7 39 52 -58 c29 -32 55 -56 57 -53 3
3 -12 31 -33 63 -52 78 -121 216 -139 279 -35 122 -9 312 58 417 l36 57 -22
12 c-88 49 -142 59 -208 36 -48 -16 -130 -70 -171 -112 -40 -41 -66 -49 -47
-14 28 52 132 129 207 153 64 21 108 16 194 -25 89 -42 108 -40 183 24 35 30
78 57 95 61 19 4 61 0 106 -11 41 -9 78 -14 82 -10 7 8 -37 49 -103 96 -83 58
-222 76 -352 45 -89 -21 -220 -86 -303 -151 -39 -31 -73 -55 -75 -53 -1 2 1
72 7 154 9 144 10 151 35 172 54 45 194 56 356 28 121 -22 199 -47 346 -114
69 -32 169 -75 221 -95 133 -53 161 -69 203 -115 20 -23 40 -41 43 -41 8 0 -4
92 -23 165 -37 151 -167 292 -335 364 -73 31 -241 63 -338 65 -48 0 -83 4 -76
8 6 4 41 8 79 8 37 0 67 3 67 6 0 3 -13 16 -29 30 -35 29 -91 111 -91 132 0
21 77 92 100 92 12 0 22 -11 30 -34z m1849 -856 c51 -26 102 -87 124 -147 25
-71 39 -190 29 -253 l-8 -55 -16 89 c-12 60 -27 105 -48 140 -57 93 -160 226
-175 226 -12 0 -15 -15 -15 -80 0 -99 18 -153 94 -286 31 -55 63 -121 72 -149
18 -62 29 -275 16 -335 l-10 -45 -1 40 c-5 166 -90 443 -226 732 -25 52 -45
99 -45 104 0 18 58 38 113 39 38 0 71 -7 96 -20z m-2183 -317 c-3 -10 -10 -40
-16 -68 -6 -27 -36 -125 -66 -216 -30 -92 -61 -198 -69 -235 -16 -74 -19 -239
-6 -316 9 -57 -4 -64 -19 -10 -50 187 -37 338 48 547 26 66 64 164 82 218 19
53 38 97 43 97 5 0 6 -8 3 -17z"/>
<path d="M1810 3085 c0 -4 15 -28 34 -54 18 -25 48 -75 67 -110 38 -72 108
-135 167 -150 20 -5 71 -12 112 -16 56 -5 81 -13 99 -29 23 -20 24 -20 17 -1
-5 11 -14 54 -21 95 -8 41 -17 84 -21 95 -10 24 -54 64 -72 65 -26 0 -166 53
-219 82 -30 16 -57 28 -60 25 -11 -11 106 -78 187 -108 94 -34 125 -53 70 -43
-170 31 -204 44 -312 122 -27 18 -48 31 -48 27z m368 -277 c-3 -7 -13 -15 -24
-17 -16 -3 -17 -1 -5 13 16 19 34 21 29 4z"/>
<path d="M3095 3060 c-28 -16 -88 -41 -135 -55 -147 -46 -156 -54 -176 -173
-8 -42 -17 -90 -20 -107 l-7 -30 22 26 c18 24 31 28 103 34 150 13 213 53 274
169 20 39 50 88 67 109 38 49 29 58 -20 19 -65 -51 -154 -91 -228 -102 -38 -6
-81 -13 -95 -16 -41 -9 -2 12 78 41 69 25 123 52 172 87 41 30 17 28 -35 -2z
m-177 -259 c3 -8 -1 -12 -9 -9 -7 2 -15 10 -17 17 -3 8 1 12 9 9 7 -2 15 -10
17 -17z"/>
<path d="M1856 2939 c6 -8 15 -25 19 -39 13 -46 67 -127 97 -145 27 -16 143
-45 178 -45 13 0 13 1 0 10 -8 5 -23 10 -33 10 -45 0 -132 34 -163 64 -18 17
-44 58 -57 91 -14 32 -31 61 -38 64 -11 3 -11 1 -3 -10z"/>
<path d="M3162 2870 c-35 -74 -60 -98 -132 -123 -39 -13 -41 -16 -17 -16 71
-2 137 56 169 150 10 29 17 54 15 56 -2 1 -18 -29 -35 -67z"/>
<path d="M2412 2808 c11 -35 28 -59 28 -42 0 12 -30 74 -35 74 -2 0 1 -15 7
-32z"/>
<path d="M2639 2796 c-11 -25 -19 -53 -16 -63 3 -14 5 -15 9 -3 41 124 43 141
7 66z"/>
<path d="M2442 2720 c0 -19 2 -27 5 -17 2 9 2 25 0 35 -3 9 -5 1 -5 -18z"/>
<path d="M2582 2725 c0 -16 2 -22 5 -12 2 9 2 23 0 30 -3 6 -5 -1 -5 -18z"/>
<path d="M2915 2720 c-3 -6 5 -10 19 -10 14 0 28 5 31 10 3 6 -5 10 -19 10
-14 0 -28 -4 -31 -10z"/>
<path d="M2736 2358 c5 -31 2 -41 -29 -74 l-35 -39 -136 0 -135 0 -35 34 c-27
27 -36 43 -37 70 l-1 36 -15 -35 c-9 -19 -18 -53 -20 -76 -5 -39 -3 -43 38
-75 99 -78 146 -133 159 -188 22 -93 1 -157 -65 -198 -87 -53 -170 -60 -237
-20 -25 15 -58 41 -72 58 -29 34 -33 31 -11 -10 39 -77 120 -110 229 -94 84
12 134 34 176 76 l30 31 16 -22 c33 -48 180 -92 262 -79 46 8 125 62 148 101
17 30 16 29 -33 -12 -68 -56 -120 -72 -194 -57 -106 22 -169 81 -169 161 0 86
37 149 128 217 70 52 81 65 82 98 0 30 -18 86 -36 113 -12 17 -13 15 -8 -16z"/>
</g>
</svg>
